<svg xmlns="http://www.w3.org/2000/svg" xmlns:xlink="http://www.w3.org/1999/xlink" version="1.1" x="0px" y="0px" viewBox="0 0 1024 1280" style="enable-background:new 0 0 1024 1024;" xml:space="preserve"><g><g><path d="M767.9,536.7c0-26,0-52,0-77.9c0-41.4,0-82.8,0-124.2c0-9.5,0-19,0-28.5c0-27-22.9-50-50-50    c-26,0-52,0-77.9,0c-41.4,0-82.8,0-124.2,0c-9.5,0-19,0-28.5,0c-12.8,0-26.3,5.6-35.4,14.6c-8.7,8.7-15.2,22.9-14.6,35.4    c0.6,12.9,4.8,26.3,14.6,35.4c9.8,9,21.8,14.6,35.4,14.6c26,0,52,0,77.9,0c41.4,0,82.8,0,124.2,0c9.5,0,19,0,28.5,0    c-16.7-16.7-33.3-33.3-50-50c0,26,0,52,0,77.9c0,41.4,0,82.8,0,124.2c0,9.5,0,19,0,28.5c0,12.8,5.6,26.3,14.6,35.4    c8.7,8.7,22.9,15.2,35.4,14.6c12.9-0.6,26.3-4.8,35.4-14.6C762.2,562.3,767.9,550.3,767.9,536.7L767.9,536.7z"/></g></g><g><g><path d="M341.4,753.3c13.7-13.7,27.4-27.4,41.1-41.1c32.7-32.7,65.3-65.3,98-98c39.7-39.7,79.5-79.5,119.2-119.2    c34.3-34.3,68.5-68.5,102.8-102.8c16.6-16.6,33.5-33.1,49.9-49.9c0.2-0.2,0.5-0.5,0.7-0.7c9.1-9.1,14.6-22.5,14.6-35.4    c0-12.3-5.4-26.9-14.6-35.4c-9.5-8.7-22-15.2-35.4-14.6c-13.3,0.6-25.8,5.1-35.4,14.6c-13.7,13.7-27.4,27.4-41.1,41.1    c-32.7,32.7-65.3,65.3-98,98c-39.7,39.7-79.5,79.5-119.2,119.2c-34.3,34.3-68.5,68.5-102.8,102.8c-16.6,16.6-33.5,33.1-49.9,49.9    c-0.2,0.2-0.5,0.5-0.7,0.7c-9.1,9.1-14.6,22.5-14.6,35.4c0,12.3,5.4,26.9,14.6,35.4c9.5,8.7,22,15.2,35.4,14.6    C319.4,767.3,331.9,762.8,341.4,753.3L341.4,753.3z"/></g></g><g><g><path d="M853.3,900.4c-6.2,0-12.4,0-18.6,0c-16.8,0-33.5,0-50.3,0c-24.9,0-49.7,0-74.6,0c-30.3,0-60.6,0-90.9,0    c-33,0-65.9,0-98.9,0c-33.3,0-66.6,0-100,0c-30.9,0-61.8,0-92.7,0c-25.8,0-51.5,0-77.3,0c-18.3,0-36.5,0-54.8,0c-8,0-16,0-24,0    c-4.3,0-8.6-0.3-12.9-0.8c4.4,0.6,8.9,1.2,13.3,1.8c-8.5-1.2-16.7-3.4-24.6-6.6c4,1.7,8,3.4,11.9,5c-7.7-3.3-14.9-7.4-21.6-12.5    c3.4,2.6,6.7,5.2,10.1,7.8c-6.9-5.4-13.1-11.5-18.5-18.5c2.6,3.4,5.2,6.7,7.8,10.1c-5-6.7-9.2-13.9-12.5-21.6c1.7,4,3.4,8,5,11.9    c-3.2-7.9-5.4-16.1-6.6-24.6c0.6,4.4,1.2,8.9,1.8,13.3c-1.1-9.3-0.8-18.8-0.8-28.2c0-16.3,0-32.5,0-48.8c0-24.5,0-49.1,0-73.6    c0-30.4,0-60.7,0-91.1c0-33.2,0-66.4,0-99.6c0-33.7,0-67.4,0-101.1c0-31.2,0-62.4,0-93.5c0-26.2,0-52.4,0-78.5    c0-18.6,0-37.2,0-55.7c0-8.1,0-16.3,0-24.4c0-4.3,0.3-8.6,0.8-12.9c-0.6,4.4-1.2,8.9-1.8,13.3c1.2-8.5,3.4-16.7,6.6-24.6    c-1.7,4-3.4,8-5,11.9c3.3-7.7,7.4-14.9,12.5-21.6c-2.6,3.4-5.2,6.7-7.8,10.1c5.4-6.9,11.5-13.1,18.5-18.5    c-3.4,2.6-6.7,5.2-10.1,7.8c6.7-5,13.9-9.2,21.6-12.5c-4,1.7-8,3.4-11.9,5c7.9-3.2,16.1-5.4,24.6-6.6c-4.4,0.6-8.9,1.2-13.3,1.8    c9.3-1.1,18.8-0.8,28.2-0.8c16.3,0,32.5,0,48.8,0c24.5,0,49.1,0,73.6,0c30.4,0,60.7,0,91.1,0c33.2,0,66.4,0,99.6,0    c33.7,0,67.4,0,101.1,0c31.2,0,62.4,0,93.5,0c26.2,0,52.4,0,78.5,0c18.6,0,37.2,0,55.7,0c8.1,0,16.3,0,24.4,0    c4.3,0,8.6,0.3,12.9,0.8c-4.4-0.6-8.9-1.2-13.3-1.8c8.5,1.2,16.7,3.4,24.6,6.6c-4-1.7-8-3.4-11.9-5c7.7,3.3,14.9,7.4,21.6,12.5    c-3.4-2.6-6.7-5.2-10.1-7.8c6.9,5.4,13.1,11.5,18.5,18.5c-2.6-3.4-5.2-6.7-7.8-10.1c5,6.7,9.2,13.9,12.5,21.6c-1.7-4-3.4-8-5-11.9    c3.2,7.9,5.4,16.1,6.6,24.6c-0.6-4.4-1.2-8.9-1.8-13.3c1.1,9.3,0.8,18.8,0.8,28.2c0,16.3,0,32.5,0,48.8c0,24.5,0,49.1,0,73.6    c0,30.4,0,60.7,0,91.1c0,33.2,0,66.4,0,99.6c0,33.7,0,67.4,0,101.1c0,31.2,0,62.4,0,93.5c0,26.2,0,52.4,0,78.5    c0,18.6,0,37.2,0,55.7c0,8.1,0,16.3,0,24.4c0,4.3-0.3,8.6-0.8,12.9c0.6-4.4,1.2-8.9,1.8-13.3c-1.2,8.5-3.4,16.7-6.6,24.6    c1.7-4,3.4-8,5-11.9c-3.3,7.7-7.4,14.9-12.5,21.6c2.6-3.4,5.2-6.7,7.8-10.1c-5.4,6.9-11.5,13.1-18.5,18.5    c3.4-2.6,6.7-5.2,10.1-7.8c-6.7,5-13.9,9.2-21.6,12.5c4-1.7,8-3.4,11.9-5c-7.9,3.2-16.1,5.4-24.6,6.6c4.4-0.6,8.9-1.2,13.3-1.8    C861.6,900.1,857.4,900.3,853.3,900.4c-12.9,0.1-26.2,5.5-35.4,14.6c-8.7,8.7-15.2,22.9-14.6,35.4c0.6,12.9,4.8,26.3,14.6,35.4    c9.7,8.9,21.8,14.7,35.4,14.6c37.5-0.3,72.4-14.6,100.1-39.6c4.6-4.1,8.6-8.6,12.4-13.5c6.2-7.9,12.3-15.6,17-24.5    c9.8-19.1,14.6-37.3,17-58.4c1.1-10.1,0.6-20.5,0.6-30.6c0-19.4,0-38.7,0-58.1c0-28.9,0-57.8,0-86.7c0-34.6,0-69.3,0-103.9    c0-37.1,0-74.3,0-111.4c0-35.8,0-71.5,0-107.3c0-31,0-62,0-93c0-22.8,0-45.6,0-68.5c0-10.9,0-21.8,0-32.7    c0-17.4-2.6-35.6-9.2-51.8c-7.8-19.2-17.1-35.3-31.3-50.7c-6.8-7.3-14.7-13.3-22.7-19.3c-4.9-3.7-10.1-7-15.6-9.7    c-21.8-10.9-44.7-16.9-69.2-17c-3.3,0-6.7,0-10,0c-16.6,0-33.1,0-49.7,0c-27,0-53.9,0-80.9,0c-33.6,0-67.1,0-100.7,0    c-36.9,0-73.8,0-110.7,0c-36.4,0-72.7,0-109.1,0c-32.6,0-65.2,0-97.8,0c-25,0-50.1,0-75.1,0c-14.1,0-28.2,0-42.2,0    c-2.8,0-5.5,0-8.3,0C130.8,24.7,95.6,39.4,68.7,65c-7.2,6.8-13.3,14.9-19.1,22.9c-3.6,5-6.9,10.2-9.5,15.7    c-9.3,19.3-14,36.9-16,58.1c-0.4,4.6-0.4,9.1-0.4,13.7c0,13.6,0,27.1,0,40.7c0,24.8,0,49.6,0,74.4c0,32.3,0,64.5,0,96.8    c0,36.5,0,72.9,0,109.4c0,36.8,0,73.6,0,110.4c0,33.9,0,67.8,0,101.7c0,27.2,0,54.3,0,81.5c0,17.1,0,34.1,0,51.2    c0,3.6,0,7.3,0,10.9c0,1.8,0,3.6,0.1,5.4c0.9,21.5,6,39.9,14.7,59.4c6.5,14.6,16.4,28.1,27.5,39.4c6.9,7.1,15,13.2,23,18.9    c5,3.6,10.3,6.7,15.9,9.3c21.5,10,43.1,15.8,66.9,15.8c10.4,0,20.8,0,31.3,0c22.3,0,44.7,0,67,0c30.9,0,61.8,0,92.7,0    c35.6,0,71.3,0,106.9,0c37,0,74,0,111,0c35,0,69.9,0,104.9,0c29.1,0,58.1,0,87.2,0c19.8,0,39.6,0,59.5,0c7.1,0,14.1,0,21.2,0    c12.8,0,26.3-5.6,35.4-14.6c8.7-8.7,15.2-22.9,14.6-35.4c-0.6-12.9-4.8-26.3-14.6-35.4C878.9,906,866.8,900.4,853.3,900.4z"/></g></g><text x="0" y="1039" fill="#000000" font-size="5px" font-weight="bold" font-family="'Helvetica Neue', Helvetica, Arial-Unicode, Arial, Sans-serif">Created by shashank singh</text><text x="0" y="1044" fill="#000000" font-size="5px" font-weight="bold" font-family="'Helvetica Neue', Helvetica, Arial-Unicode, Arial, Sans-serif">from the Noun Project</text></svg>